<svg width="30" height="24" viewBox="0 0 30 24" fill="none" xmlns="http://www.w3.org/2000/svg">
<g id="Frame 1410126170" clip-path="url(#clip0_4039_725)">
<path id="Vector 1" d="M6.4 3.3072C6.4 1.69599 8 0 9.6 0H3.12C1.6 0 0 1.69599 0 3.3072V13.6528C0 15.264 1.6 16.96 3.12 16.96H9.6C8 16.96 6.4 15.264 6.4 13.6528V3.3072Z" fill="white"/>
<path id="Vector 2" d="M23.2 3.3072C23.2 1.69599 21.6 0 20 0H26.48C28 0 29.6 1.69599 29.6 3.3072V13.6528C29.6 15.264 28 16.96 26.48 16.96H20C21.6 16.96 23.2 15.264 23.2 13.6528V3.3072Z" fill="white"/>
<path id="Vector 3" d="M18 1.44C18 0.64 18.64 0 19.44 0H11.6V22.56C11.6 23.28 10.88 24 10.16 24H14.88C16.4 24 18 22.4 18 20.88V1.44Z" fill="white"/>
</g>
<defs>
<clipPath id="clip0_4039_725">
<rect width="29.6" height="24" fill="white"/>
</clipPath>
</defs>
</svg>
