<svg width="181" height="133" viewBox="0 0 181 133" fill="none" xmlns="http://www.w3.org/2000/svg">
<g id="loading 4">
<path id="Vector 2" d="M173.445 89.6121L90.5223 104.127L7.59962 89.6121" stroke="white" stroke-width="10" stroke-linecap="round"/>
<path id="Vector 3" d="M169.739 75.7144C125.267 84.9795 90.5224 102.12 90.5224 102.12C90.5224 102.12 51.4542 82.1999 10.0702 75.7143" stroke="white" stroke-width="10" stroke-linecap="round"/>
<path id="Vector 4" d="M169.739 75.7144C125.267 84.9795 90.5224 102.12 90.5224 102.12" stroke="white" stroke-width="10" stroke-linecap="round"/>
<path id="Union" fill-rule="evenodd" clip-rule="evenodd" d="M172.238 99.0854C176.046 98.4188 179.674 100.965 180.34 104.774C181.007 108.582 178.46 112.209 174.652 112.876L104.804 125.102C104.425 129.103 98.1758 132.286 90.522 132.286C82.8683 132.286 76.6189 129.103 76.2402 125.102L6.39246 112.876C2.58437 112.209 0.037674 108.582 0.704269 104.774C1.37086 100.965 4.99832 98.4188 8.80641 99.0854L90.5221 113.389L172.238 99.0854Z" fill="#DBEAFE"/>
</g>
</svg>
