<svg width="184" height="150" viewBox="0 0 184 150" fill="none" xmlns="http://www.w3.org/2000/svg">
<g id="Clip path group">
<mask id="mask0_3994_26552" style="mask-type:luminance" maskUnits="userSpaceOnUse" x="0" y="0" width="184" height="150">
<g id="2111086b66">
<path id="Vector" d="M0 0.300049H184V149.34H0V0.300049Z" fill="white"/>
</g>
</mask>
<g mask="url(#mask0_3994_26552)">
<g id="Group">
<path id="Vector_2" d="M0.214028 24.9835C0.351389 21.4855 1.15639 18.2304 2.62903 15.218C4.09847 12.2121 6.05347 9.58624 8.5068 7.34694C10.9537 5.10764 13.6818 3.39541 16.6942 2.20389C19.6969 1.01875 22.885 0.421387 26.2423 0.421387H48.7057C46.7443 1.54264 44.9937 2.93861 43.4572 4.62208C42.1986 6.1618 41.0454 8.11999 39.9944 10.4999C38.9403 12.8797 38.4196 15.825 38.4196 19.3165V86.4957C38.4196 90.1341 38.9403 93.1433 39.9944 95.5232C41.0454 97.903 42.1986 99.8612 43.4572 101.401C44.9937 103.081 46.7443 104.413 48.7057 105.391H26.2423C22.885 105.391 19.6969 104.797 16.691 103.602C13.6786 102.417 10.9474 100.736 8.50041 98.5643C6.05027 96.3952 4.09208 93.8077 2.62264 90.7922C1.15 87.7862 0.345 84.5343 0.207639 81.03C0.0734726 79.9119 0 76.5961 0 71.0665C0 65.5401 0 59.4866 0 52.9061C0 49.6861 0 46.5364 0 43.4569C0 40.3807 0 37.5472 0 34.9533C0 32.3658 0.0383335 30.1968 0.105417 28.4462C0.182083 26.6989 0.214028 25.5425 0.214028 24.9835ZM69.4919 0.421387V130.579C69.4919 134.217 68.968 137.191 67.917 139.504C66.8661 141.814 65.7097 143.737 64.4511 145.277C62.9082 146.957 61.2311 148.356 59.4102 149.477H81.6627C86.2819 149.477 90.2718 148.602 93.6259 146.851C96.9833 145.104 99.7145 142.686 101.816 139.613C103.915 136.533 105.455 132.927 106.436 128.803C107.413 124.672 107.908 120.226 107.908 115.469V9.23486C107.908 7.41722 108.256 5.95097 108.959 4.82972C109.656 3.71166 110.429 2.80125 111.269 2.09847C112.243 1.40208 113.368 0.839859 114.626 0.421387H69.4919ZM183.827 24.9835C183.827 26.1047 183.859 29.4269 183.93 34.9533C184 40.4829 184.032 46.5364 184.032 53.1137C184.032 56.3337 184.032 59.4803 184.032 62.5597C184.032 65.6391 183.994 68.4726 183.93 71.0601C183.859 73.654 183.827 75.823 183.827 77.564C183.827 79.3146 183.827 80.4677 183.827 81.03C183.543 84.5279 182.671 87.7862 181.198 90.7922C179.729 93.8077 177.768 96.3952 175.321 98.5643C172.87 100.736 170.139 102.417 167.133 103.602C164.118 104.797 160.936 105.391 157.582 105.391H135.329C137.15 104.413 138.827 103.081 140.37 101.401C141.629 99.8644 142.782 97.9382 143.833 95.6254C144.887 93.3158 145.408 90.3482 145.408 86.7033V19.3165C145.408 15.8186 144.887 12.8797 143.833 10.4999C142.782 8.12638 141.629 6.1618 140.37 4.62208C138.827 2.9418 137.15 1.61291 135.329 0.63222H157.582C160.942 0.63222 164.118 1.23278 167.133 2.41472C170.139 3.60944 172.87 5.28652 175.321 7.45555C177.768 9.62777 179.729 12.2153 181.198 15.2244C182.671 18.2304 183.543 21.4855 183.827 24.9835Z" fill="white"/>
</g>
</g>
</g>
</svg>
